<?xml version="1.0" encoding="UTF-8"?>
<svg xmlns="http://www.w3.org/2000/svg" version="1.1" xmlns:xlink="http://www.w3.org/1999/xlink" width="512" height="512" x="0" y="0" viewBox="0 0 512 512" style="enable-background:new 0 0 512 512" xml:space="preserve" class=""><g><defs><g id="b"><use xlink:href="#a" width="1235" height="650" transform="rotate(-144)"></use><use xlink:href="#a" width="1235" height="650" transform="rotate(-72)"></use><use xlink:href="#a" width="1235" height="650"></use><use xlink:href="#a" width="1235" height="650" transform="rotate(72)"></use><use xlink:href="#a" width="1235" height="650" transform="rotate(144)"></use></g><g id="c"><use xlink:href="#b" width="1235" height="650" x="-.252"></use><use xlink:href="#b" width="1235" height="650" x="-.126"></use><use xlink:href="#b" width="1235" height="650"></use><use xlink:href="#b" width="1235" height="650" x=".126"></use><use xlink:href="#b" width="1235" height="650" x=".252"></use></g><g id="d"><use xlink:href="#c" width="1235" height="650" x="-.063"></use><use xlink:href="#b" width="1235" height="650" x=".315"></use></g><g id="e"><use xlink:href="#d" width="1235" height="650"></use><use xlink:href="#c" width="1235" height="650" y=".054"></use><use xlink:href="#d" width="1235" height="650" y=".108"></use><use xlink:href="#c" width="1235" height="650" y=".162"></use></g><path id="a" fill="#ffffff" d="m0-.5.162.5h-.324z" transform="scale(.062)" opacity="1" data-original="#ffffff" class=""></path></defs><g fill-rule="evenodd"><path fill="#e64c3c" d="M256 16A240 240 0 0 0 30.03 176h451.973A240 240 0 0 0 256 16z" opacity="1" data-original="#e64c3c"></path><path fill="#ffffff" d="M30.03 176A240 240 0 0 0 16 256a240 240 0 0 0 13.996 80h451.972A240 240 0 0 0 496 256a240 240 0 0 0-13.996-80z" opacity="1" data-original="#ffffff" class=""></path><path fill="#29a85e" d="M29.996 336a240 240 0 0 0 226.003 160 240 240 0 0 0 225.97-160z" opacity="1" data-original="#29a85e"></path><path fill="#fcd116" d="m308.553 364.062-35.703-50.229 1.7 60.93-19.311-58.52-16.334 58.725-1.205-61.613-32.918 51.3 17.01-59.23-46.577 39.32 33.712-51.587-56.097 23.844 47.42-39.357-60.633 6.25 56.914-23.632-59.781-11.9 61.35-5.806-53.617-28.992 60.336 12.536-42.69-43.508 53.961 29.763-27.97-54.159 42.791 44.346-10.763-59.996 27.819 54.989 7.4-60.503 10.373 60.745 24.905-55.634-7.992 61.104 40.196-45.822-25.647 56.034 51.917-31.938-41.025 45.985 59.025-15.216-52.756 31.85 60.886 2.857-59.8 14.885 57.34 20.677-61.53-3.403 48.697 36.66-57.794-21.389 35.729 49.385-48.923-37.473z" opacity="1" data-original="#fcd116" class=""></path></g></g></svg>