<svg width="49" height="49" viewBox="0 0 49 49" fill="none" xmlns="http://www.w3.org/2000/svg">
<path d="M44.9568 0H3.36C1.51669 0 0.0223999 1.49429 0.0223999 3.3376V44.9344C0.0223999 46.7777 1.51669 48.272 3.36 48.272H44.9568C46.8001 48.272 48.2944 46.7777 48.2944 44.9344V3.3376C48.2944 1.49429 46.8001 0 44.9568 0Z" fill="#F0457D"/>
<path opacity="0.15" d="M48.2944 37.5259V3.36586C48.2944 2.47473 47.9404 1.6201 47.3103 0.989981C46.6802 0.359858 45.8255 0.00585938 44.9344 0.00585938H40.3984C41.2895 0.00585938 42.1442 0.359858 42.7743 0.989981C43.4044 1.6201 43.7584 2.47473 43.7584 3.36586V31.7971L36.6584 13.6367L28.6584 14.6367L25.1584 20.1367V27.1367L27.02 43.7363H3.36C2.46887 43.7363 1.61424 43.3823 0.984121 42.7521C0.353999 42.122 0 41.2674 0 40.3763V44.9403C0 45.8314 0.353999 46.686 0.984121 47.3161C1.61424 47.9463 2.46887 48.3003 3.36 48.3003H44.9624C45.8535 48.3003 46.7082 47.9463 47.3383 47.3161C47.9684 46.686 48.3224 45.8314 48.3224 44.9403V37.5259H48.2944Z" fill="#13183F"/>
<path d="M7.52639 35.1367V32.5767H11.5904V18.7527H7.59039V16.1927C8.84905 16.1927 9.78772 16.1181 10.4064 15.9687C11.0464 15.7981 11.4731 15.4674 11.6864 14.9767C11.8997 14.4861 12.0064 13.7501 12.0064 12.7687H14.4064V32.5767H18.6624V35.1367H7.52639ZM32.5086 35.5527C30.8233 35.5527 29.4046 35.2221 28.2526 34.5607C27.122 33.8781 26.2153 32.9714 25.5326 31.8407C24.8713 30.7101 24.3913 29.4407 24.0926 28.0327C23.8153 26.6034 23.6766 25.1527 23.6766 23.6807C23.6766 22.1234 23.826 20.6514 24.1246 19.2647C24.4233 17.8567 24.9033 16.6194 25.5646 15.5527C26.2473 14.4861 27.154 13.6434 28.2846 13.0247C29.4153 12.4061 30.8233 12.0967 32.5086 12.0967C34.1726 12.0967 35.57 12.4061 36.7006 13.0247C37.8313 13.6434 38.7273 14.4861 39.3886 15.5527C40.05 16.6194 40.53 17.8567 40.8286 19.2647C41.1273 20.6514 41.2766 22.1234 41.2766 23.6807C41.2766 25.1527 41.1273 26.6034 40.8286 28.0327C40.5513 29.4407 40.0713 30.7101 39.3886 31.8407C38.7273 32.9714 37.8313 33.8781 36.7006 34.5607C35.5913 35.2221 34.194 35.5527 32.5086 35.5527ZM32.5086 32.9607C33.9593 32.9607 35.122 32.5447 35.9966 31.7127C36.8713 30.8594 37.5006 29.7287 37.8846 28.3207C38.29 26.9127 38.4926 25.3554 38.4926 23.6487C38.4926 21.8994 38.29 20.3527 37.8846 19.0087C37.5006 17.6647 36.8713 16.6087 35.9966 15.8407C35.1433 15.0727 33.9913 14.6887 32.5406 14.6887C31.0473 14.6887 29.8526 15.0727 28.9566 15.8407C28.0606 16.6087 27.4206 17.6647 27.0366 19.0087C26.6526 20.3527 26.4606 21.8994 26.4606 23.6487C26.4606 25.3554 26.6526 26.9127 27.0366 28.3207C27.4206 29.7287 28.05 30.8594 28.9246 31.7127C29.8206 32.5447 31.0153 32.9607 32.5086 32.9607ZM32.5086 25.8567C31.954 25.8567 31.474 25.6541 31.0686 25.2487C30.6633 24.8434 30.4606 24.3741 30.4606 23.8407C30.4606 23.2861 30.6633 22.8061 31.0686 22.4007C31.474 21.9954 31.954 21.7927 32.5086 21.7927C33.0633 21.7927 33.5326 21.9954 33.9166 22.4007C34.3006 22.8061 34.4926 23.2861 34.4926 23.8407C34.4926 24.3741 34.3006 24.8434 33.9166 25.2487C33.5326 25.6541 33.0633 25.8567 32.5086 25.8567Z" fill="#F2F2F2"/>
<circle cx="33.1584" cy="23.1367" r="3" fill="#CF3F73"/>
</svg>
