<svg width="49" height="49" viewBox="0 0 49 49" fill="none" xmlns="http://www.w3.org/2000/svg">
<path d="M44.9568 0.0214844H3.36C1.51669 0.0214844 0.0223999 1.51578 0.0223999 3.35908V44.9559C0.0223999 46.7992 1.51669 48.2935 3.36 48.2935H44.9568C46.8001 48.2935 48.2944 46.7992 48.2944 44.9559V3.35908C48.2944 1.51578 46.8001 0.0214844 44.9568 0.0214844Z" fill="#0099F5"/>
<path opacity="0.15" d="M48.2944 34.1096V3.36C48.2944 2.46887 47.9404 1.61424 47.3103 0.984121C46.6802 0.353999 45.8255 0 44.9344 0H40.3984C41.2895 0 42.1442 0.353999 42.7743 0.984121C43.4044 1.61424 43.7584 2.46887 43.7584 3.36V28.6048L24.6584 13.1582C24.6584 13.1582 20.7584 20.639 18.6584 21.6582C18.6584 21.6582 30.7888 25.8496 28.9576 30.604C27.3224 34.86 16.492 33.1184 16.492 33.1184L24.1136 43.7584H3.36C2.46887 43.7584 1.61424 43.4044 0.984121 42.7743C0.353999 42.1442 0 41.2895 0 40.3984V44.9624C0 45.8535 0.353999 46.7082 0.984121 47.3383C1.61424 47.9684 2.46887 48.3224 3.36 48.3224H44.9568C45.8479 48.3224 46.7026 47.9684 47.3327 47.3383C47.9628 46.7082 48.3168 45.8535 48.3168 44.9624V34.1096H48.2944Z" fill="#13183F"/>
<path d="M21.9824 35.5422C20.4464 35.5422 19.1237 35.2115 18.0144 34.5502C16.9051 33.8889 16.0517 32.9822 15.4544 31.8302C14.8784 30.6782 14.5904 29.3662 14.5904 27.8942C14.5904 26.8489 14.7931 25.8462 15.1984 24.8862C15.6037 23.9049 16.0411 23.0195 16.5104 22.2302L22.1104 12.7582H25.2784L19.7104 21.4942C19.9024 21.2595 20.2437 21.0675 20.7344 20.9182C21.2464 20.7689 21.7477 20.6942 22.2384 20.6942C23.4971 20.6942 24.6597 21.0142 25.7264 21.6542C26.7931 22.2942 27.6464 23.1582 28.2864 24.2462C28.9477 25.3129 29.2784 26.5289 29.2784 27.8942C29.2784 29.3662 28.9797 30.6782 28.3824 31.8302C27.7851 32.9822 26.9424 33.8889 25.8544 34.5502C24.7664 35.2115 23.4757 35.5422 21.9824 35.5422ZM22.0144 32.9822C23.4011 32.9822 24.4891 32.5022 25.2784 31.5422C26.0677 30.5822 26.4624 29.3555 26.4624 27.8622C26.4624 27.0942 26.2811 26.3475 25.9184 25.6222C25.5557 24.8969 25.0331 24.2995 24.3504 23.8302C23.6891 23.3609 22.8677 23.1262 21.8864 23.1262C20.9051 23.1262 20.0731 23.3609 19.3904 23.8302C18.7291 24.2995 18.2277 24.8969 17.8864 25.6222C17.5451 26.3475 17.3744 27.0942 17.3744 27.8622C17.3744 28.8009 17.5451 29.6649 17.8864 30.4542C18.2277 31.2222 18.7397 31.8409 19.4224 32.3102C20.1264 32.7582 20.9904 32.9822 22.0144 32.9822Z" fill="#F2F2F2"/>
</svg>
