<svg width="49" height="49" viewBox="0 0 49 49" fill="none" xmlns="http://www.w3.org/2000/svg">
<path d="M44.9568 0H3.36C1.51669 0 0.0223999 1.49429 0.0223999 3.3376V44.9344C0.0223999 46.7777 1.51669 48.272 3.36 48.272H44.9568C46.8001 48.272 48.2944 46.7777 48.2944 44.9344V3.3376C48.2944 1.49429 46.8001 0 44.9568 0Z" fill="#F0457D"/>
<path opacity="0.15" d="M48.2944 37.5259V3.36586C48.2944 2.47473 47.9404 1.6201 47.3103 0.989981C46.6802 0.359858 45.8255 0.00585938 44.9344 0.00585938H40.3984C41.2895 0.00585938 42.1442 0.359858 42.7743 0.989981C43.4044 1.6201 43.7584 2.47473 43.7584 3.36586V31.7971L31.6584 13.1367L20.1584 35.1367L27.02 43.7363H3.36C2.46887 43.7363 1.61424 43.3823 0.984121 42.7521C0.353999 42.122 0 41.2674 0 40.3763V44.9403C0 45.8314 0.353999 46.686 0.984121 47.3161C1.61424 47.9463 2.46887 48.3003 3.36 48.3003H44.9624C45.8535 48.3003 46.7082 47.9463 47.3383 47.3161C47.9684 46.686 48.3224 45.8314 48.3224 44.9403V37.5259H48.2944Z" fill="#13183F"/>
<path d="M19.7104 35.1047L29.2784 15.2967H17.9184V12.7367H32.1264V15.2327L22.5584 35.1047H19.7104Z" fill="#F2F2F2"/>
</svg>
