<svg width="49" height="49" viewBox="0 0 49 49" fill="none" xmlns="http://www.w3.org/2000/svg">
<path d="M44.9568 0.0214844H3.36C1.51669 0.0214844 0.0223999 1.51578 0.0223999 3.35908V44.9559C0.0223999 46.7992 1.51669 48.2935 3.36 48.2935H44.9568C46.8001 48.2935 48.2944 46.7992 48.2944 44.9559V3.35908C48.2944 1.51578 46.8001 0.0214844 44.9568 0.0214844Z" fill="#FFD44D"/>
<path opacity="0.15" d="M48.2944 33.8576V3.36C48.2944 2.46887 47.9404 1.61424 47.3103 0.984121C46.6802 0.353999 45.8255 0 44.9344 0H40.3984C41.2895 0 42.1442 0.353999 42.7743 0.984121C43.4044 1.61424 43.7584 2.46887 43.7584 3.36V28.56L29.6584 16.1582C29.6584 16.1582 28.1584 15.1582 27.6584 22.1582C27.6584 22.1582 29.9488 23.3464 29.0696 30.576C28.5096 35.1008 18.1584 33.1582 18.1584 33.1582L25.1384 43.7584H3.36C2.46887 43.7584 1.61424 43.4044 0.984121 42.7743C0.353999 42.1442 0 41.2895 0 40.3984V44.9624C0 45.8535 0.353999 46.7082 0.984121 47.3383C1.61424 47.9684 2.46887 48.3224 3.36 48.3224H44.9568C45.8479 48.3224 46.7026 47.9684 47.3327 47.3383C47.9628 46.7082 48.3168 45.8535 48.3168 44.9624V33.8576H48.2944Z" fill="#F0457D"/>
<path d="M23.7584 35.5422C22.3931 35.5422 21.1344 35.2755 19.9824 34.7422C18.8304 34.2089 17.9131 33.4302 17.2304 32.4062C16.5477 31.3822 16.2064 30.1342 16.2064 28.6622C16.2064 27.3395 16.5157 26.1875 17.1344 25.2062C17.7531 24.2249 18.5531 23.4462 19.5344 22.8702C18.8944 22.3795 18.3611 21.7395 17.9344 20.9502C17.5077 20.1609 17.2944 19.2435 17.2944 18.1982C17.2944 16.9182 17.5824 15.8515 18.1584 14.9982C18.7344 14.1235 19.5131 13.4729 20.4944 13.0462C21.4757 12.5982 22.5531 12.3742 23.7264 12.3742C24.9424 12.3742 26.0304 12.5982 26.9904 13.0462C27.9717 13.4729 28.7504 14.1235 29.3264 14.9982C29.9024 15.8515 30.1904 16.9182 30.1904 18.1982C30.1904 19.2435 29.9877 20.1609 29.5824 20.9502C29.1771 21.7182 28.6331 22.3582 27.9504 22.8702C28.9531 23.4462 29.7637 24.2249 30.3824 25.2062C31.0224 26.1875 31.3424 27.3395 31.3424 28.6622C31.3424 30.1342 30.9904 31.3822 30.2864 32.4062C29.6037 33.4302 28.6864 34.2089 27.5344 34.7422C26.3824 35.2755 25.1237 35.5422 23.7584 35.5422ZM23.7584 21.7822C24.9531 21.7822 25.8704 21.4515 26.5104 20.7902C27.1717 20.1075 27.5024 19.2435 27.5024 18.1982C27.5024 17.3022 27.1717 16.5129 26.5104 15.8302C25.8491 15.1475 24.9104 14.8062 23.6944 14.8062C22.4784 14.8062 21.5504 15.1475 20.9104 15.8302C20.2917 16.5129 19.9824 17.3022 19.9824 18.1982C19.9824 19.2435 20.3131 20.1075 20.9744 20.7902C21.6357 21.4515 22.5637 21.7822 23.7584 21.7822ZM23.7904 32.9822C25.2197 32.9822 26.3611 32.5875 27.2144 31.7982C28.0891 30.9875 28.5264 29.9422 28.5264 28.6622C28.5264 27.8515 28.3237 27.1155 27.9184 26.4542C27.5344 25.7929 26.9797 25.2702 26.2544 24.8862C25.5504 24.4809 24.7077 24.2782 23.7264 24.2782C22.2757 24.2782 21.1237 24.7155 20.2704 25.5902C19.4384 26.4435 19.0224 27.4675 19.0224 28.6622C19.0224 29.9422 19.4597 30.9875 20.3344 31.7982C21.2304 32.5875 22.3824 32.9822 23.7904 32.9822Z" fill="#F2F2F2"/>
</svg>
