<svg width="49" height="49" viewBox="0 0 49 49" fill="none" xmlns="http://www.w3.org/2000/svg">
<path d="M44.9568 0.0214844H3.36C1.51669 0.0214844 0.0223999 1.51578 0.0223999 3.35908V44.9559C0.0223999 46.7992 1.51669 48.2935 3.36 48.2935H44.9568C46.8001 48.2935 48.2944 46.7992 48.2944 44.9559V3.35908C48.2944 1.51578 46.8001 0.0214844 44.9568 0.0214844Z" fill="#0099F5"/>
<path opacity="0.15" d="M48.2944 34.1096V3.36C48.2944 2.46887 47.9404 1.61424 47.3103 0.984121C46.6802 0.353999 45.8255 0 44.9344 0H40.3984C41.2895 0 42.1442 0.353999 42.7743 0.984121C43.4044 1.61424 43.7584 2.46887 43.7584 3.36V28.6048L30.1584 15.1582C30.1584 15.1582 31.7584 21.139 29.6584 22.1582C29.6584 22.1582 28.9896 24.9038 27.1584 29.6582C25.5232 33.9142 22.1584 35.1582 22.1584 35.1582L24.1136 43.7584H3.36C2.46887 43.7584 1.61424 43.4044 0.984121 42.7743C0.353999 42.1442 0 41.2895 0 40.3984V44.9624C0 45.8535 0.353999 46.7082 0.984121 47.3383C1.61424 47.9684 2.46887 48.3224 3.36 48.3224H44.9568C45.8479 48.3224 46.7026 47.9684 47.3327 47.3383C47.9628 46.7082 48.3168 45.8535 48.3168 44.9624V34.1096H48.2944Z" fill="#13183F"/>
<path d="M21.5904 35.1582L27.1584 26.4222C26.9664 26.6569 26.6144 26.8489 26.1024 26.9982C25.6117 27.1475 25.1211 27.2222 24.6304 27.2222C23.3931 27.2222 22.2304 26.9022 21.1424 26.2622C20.0757 25.6222 19.2117 24.7582 18.5504 23.6702C17.9104 22.5822 17.5904 21.3662 17.5904 20.0222C17.5904 18.5289 17.8891 17.2169 18.4864 16.0862C19.0837 14.9342 19.9264 14.0275 21.0144 13.3662C22.1024 12.7049 23.3931 12.3742 24.8864 12.3742C26.4437 12.3742 27.7664 12.7049 28.8544 13.3662C29.9637 14.0275 30.8064 14.9342 31.3824 16.0862C31.9797 17.2169 32.2784 18.5289 32.2784 20.0222C32.2784 21.0675 32.0757 22.0702 31.6704 23.0302C31.2864 23.9902 30.8491 24.8755 30.3584 25.6862L24.7584 35.1582H21.5904ZM24.9824 24.7902C25.9851 24.7902 26.8171 24.5555 27.4784 24.0862C28.1397 23.6169 28.6411 23.0195 28.9824 22.2942C29.3237 21.5475 29.4944 20.8009 29.4944 20.0542C29.4944 19.1155 29.3237 18.2622 28.9824 17.4942C28.6411 16.7049 28.1291 16.0862 27.4464 15.6382C26.7637 15.1689 25.8997 14.9342 24.8544 14.9342C23.4677 14.9342 22.3797 15.4142 21.5904 16.3742C20.8011 17.3129 20.4064 18.5395 20.4064 20.0542C20.4064 20.8009 20.5877 21.5475 20.9504 22.2942C21.3131 23.0195 21.8357 23.6169 22.5184 24.0862C23.2011 24.5555 24.0224 24.7902 24.9824 24.7902Z" fill="#F2F2F2"/>
</svg>
